<svg width="294" height="353" viewBox="0 0 294 353" fill="none" xmlns="http://www.w3.org/2000/svg">
<path d="M25.8888 294.966L-1.98132 282.414C-54.571 258.728 -83.6391 201.68 -71.8915 145.212L-57.8379 77.658C-44.1904 12.0568 30.3498 -20.1985 87.5125 14.7614C93.5643 18.4626 100.005 21.4877 106.717 23.7822L189.843 52.1968C222.034 63.2008 248.231 87.0465 262.204 118.065L281.108 160.029C285.581 169.959 288.716 180.439 290.43 191.195L292.264 202.704C298.921 244.488 283.099 286.692 250.614 313.802C235.273 326.603 216.982 335.375 197.395 339.322L140.912 350.705C109.597 357.015 77.4027 345.11 57.7278 319.944C49.2969 309.16 38.3699 300.588 25.8888 294.966Z" fill="#3B437B"/>
</svg>
